<svg width="750.137" height="750.137" xmlns="http://www.w3.org/2000/svg">

 <g>
  <title>background</title>
  <rect fill="none" id="canvas_background" height="402" width="582" y="-1" x="-1"/>
 </g>
 <g>
  <title>Layer 1</title>
  <ellipse ry="209" rx="209" id="svg_11" cy="229.506012" cx="375.068481" stroke-width="0" stroke="#000" fill="#fff"/>
  <g id="svg_1">
   <g id="svg_2">
    <g id="svg_3">
     <g id="svg_4">
      <path id="svg_5" d="m453.137,234.206c-29.418,0 -54.309,23.76 -54.309,54.308c0,30.549 23.76,54.309 54.309,54.309c29.418,0 54.309,-23.76 54.309,-54.309c0,-30.548 -24.891,-54.308 -54.309,-54.308zm0,98.434c-24.891,0 -44.125,-19.234 -44.125,-44.126c0,-24.891 19.234,-44.125 44.125,-44.125c23.76,0 44.125,19.234 44.125,44.125c0,24.892 -19.234,44.126 -44.125,44.126z"/>
      <path id="svg_6" d="m295.869,234.206c-29.417,0 -54.309,23.76 -54.309,54.308c0,30.549 23.76,54.309 54.309,54.309c29.417,0 54.309,-23.76 54.309,-54.309c-0.001,-30.548 -24.892,-54.308 -54.309,-54.308zm0,98.434c-24.892,0 -44.125,-19.234 -44.125,-44.126c0,-24.891 19.234,-44.125 44.125,-44.125c23.76,0 44.125,19.234 44.125,44.125c0,24.892 -19.234,44.126 -44.125,44.126z"/>
     </g>
     <path id="svg_7" d="m392.039,149.349c14.709,0 26.023,-11.314 26.023,-26.023s-11.314,-26.023 -26.023,-26.023c-14.709,0 -26.022,11.314 -26.022,26.023s11.313,26.023 26.022,26.023z"/>
     <polygon id="svg_8" points="369.411,267.017 369.411,311.143 394.303,311.143 394.303,250.046 351.308,217.234     373.937,185.554 437.297,218.366 446.348,200.263 385.252,168.583 392.039,159.531 364.885,140.297 308.314,220.629     330.943,237.6    "/>
     <path id="svg_9" d="m397.698,313.406l-23.761,0c-4.525,0 -7.92,3.394 -7.92,7.92s3.395,6.789 7.92,6.789l23.761,0c4.525,0 6.787,-3.394 6.787,-6.789c-0.001,-4.526 -2.262,-7.92 -6.787,-7.92z"/>
     <path id="svg_10" d="m375.069,0c-130.115,0 -236.469,106.354 -236.469,236.469s236.469,513.668 236.469,513.668s236.469,-383.554 236.469,-514.799c-0.002,-130.115 -106.356,-235.338 -236.469,-235.338zm0,420.892c-106.354,0 -192.343,-85.989 -192.343,-192.343s85.989,-192.343 192.343,-192.343s192.342,85.989 192.342,192.343c-1.131,106.354 -87.12,192.343 -192.342,192.343z" fill="green"/>
    </g>
   </g>
  </g>
 </g>
</svg>